PathFileType	4	(X/Y/Z)	 s10c0402.trc
DataRate	CameraRate	NumFrames	NumMarkers	Units	OrigDataRate	OrigDataStartFrame	OrigNumFrames
200	200	4	49	mm	200	1	2000
Frame#	Time	racr			lacr			c7			jug			rlel			rdr			llel			ldr			s2			lic			ric			lasi			rasi			rpsi			lpsi			rgt			lgt			rth1			rth2			rth3			rth4			rlfc			rmfc			rsh1			rsh2			rsh3			rsh4			rlmal			rmmal			rcal			rtoe			rmt5			lth1			lth2			lth4			lth3			llfc			lmfc			llmal			lcal			lmt5			lsh1			lsh2			lsh3			lsh4			ltoe			SBIKE			LBIKE			RBIKE			
		X1	Y1	Z1	X2	Y2	Z2	X3	Y3	Z3	X4	Y4	Z4	X5	Y5	Z5	X6	Y6	Z6	X7	Y7	Z7	X8	Y8	Z8	X9	Y9	Z9	X10	Y10	Z10	X11	Y11	Z11	X12	Y12	Z12	X13	Y13	Z13	X14	Y14	Z14	X15	Y15	Z15	X16	Y16	Z16	X17	Y17	Z17	X18	Y18	Z18	X19	Y19	Z19	X20	Y20	Z20	X21	Y21	Z21	X22	Y22	Z22	X23	Y23	Z23	X24	Y24	Z24	X25	Y25	Z25	X26	Y26	Z26	X27	Y27	Z27	X28	Y28	Z28	X29	Y29	Z29	X30	Y30	Z30	X31	Y31	Z31	X32	Y32	Z32	X33	Y33	Z33	X34	Y34	Z34	X35	Y35	Z35	X36	Y36	Z36	X37	Y37	Z37	X38	Y38	Z38	X39	Y39	Z39	X40	Y40	Z40	X41	Y41	Z41	X42	Y42	Z42	X43	Y43	Z43	X44	Y44	Z44	X45	Y45	Z45	X46	Y46	Z46	X47	Y47	Z47	X48	Y48	Z48	X49	Y49	Z49	
1	0.0050	368.246744	1317.059136	-33.941313	402.135250	1316.950908	-341.633519	349.920140	1360.781322	-189.740550	352.041560	1214.800125	-185.834453	452.914862	1072.448737	40.994332	622.160494	916.143829	5.080517	464.935689	1062.093455	-443.187174	639.513164	915.684361	-396.397917	-151.988646	1116.118904	-231.308575	22.106230	1137.291782	-375.199123	16.652366	1141.643458	-90.313889	53.681641	1050.066001	-343.955726	19.722988	1055.322508	-89.095114	-118.326269	1175.814249	-171.935613	-101.396639	1181.835960	-283.459314	-89.375488	1024.259876	-35.924695	-66.154400	997.529448	-416.955165	13.039448	920.424827	-4.807503	97.771608	893.560934	-11.935911	155.523568	830.409887	-17.346486	116.036230	925.871534	-16.379316	252.328265	775.342234	-28.218463	253.022420	766.867057	-143.963828	216.776481	664.291409	-4.509077	233.733066	577.794853	-18.793133	205.725070	496.359211	-27.925852	264.081058	580.036893	-43.133088	197.759802	392.833924	-49.179823	219.467926	419.173542	-128.633078	153.290731	357.316889	-98.242883	390.804352	398.328595	-79.198166	314.934224	350.890322	-21.705815	13.947990	891.087934	-427.601988	85.495175	844.807402	-410.700164	110.639470	868.687385	-401.911036	124.818214	765.958667	-401.010357	192.037863	681.760472	-378.502132	187.951238	676.522421	-258.935765	-65.375685	403.682044	-381.487255	-132.341375	389.113776	-338.679746	15.567538	290.152372	-399.508713	99.517359	603.080585	-409.152414	69.192849	521.739074	-396.362137	-1.405101	466.535832	-396.079540	90.832003	506.941706	-367.734169	100.302393	290.888599	-339.826055	-204.698845	834.477900	-224.778115	-78.541026	81.703318	-423.824584	-102.285382	81.275424	-24.064017	
2	0.0100	368.244715	1317.085177	-33.961735	402.152810	1316.934575	-341.587492	349.943864	1360.757615	-189.696695	352.070567	1214.772029	-185.799326	453.039811	1072.560033	40.872590	622.186412	916.125208	4.990328	465.011996	1062.078086	-443.150819	639.518792	915.686206	-396.379218	-151.993611	1116.119076	-231.301352	22.085069	1137.256597	-375.135598	16.640341	1141.630858	-90.306311	53.683478	1050.020335	-343.959464	19.718425	1055.260861	-89.084099	-118.324263	1176.015930	-171.736379	-101.385390	1181.814502	-283.448956	-89.368019	1024.272991	-35.886222	-66.176297	997.537461	-416.950096	13.059650	920.432701	-4.801512	97.792204	893.584655	-11.921291	155.561332	830.489626	-17.324381	116.060702	925.915963	-16.376740	252.365167	775.409383	-28.197146	253.045889	766.925983	-143.973574	216.787861	664.366824	-4.488336	233.741927	577.836086	-18.769939	205.687877	496.445791	-27.904989	264.116720	580.050256	-43.138401	197.769713	392.886648	-49.174398	219.364040	419.296578	-128.585432	153.274205	357.370222	-98.246642	390.810712	398.370234	-79.214999	314.929292	350.921422	-21.717418	13.921356	891.063833	-427.586201	85.467479	844.808499	-410.706215	110.611699	868.683840	-401.909918	124.806678	765.953008	-400.998772	192.044062	681.752662	-378.459570	187.993301	676.484180	-258.908551	-65.379894	403.649679	-381.493824	-132.345479	389.085441	-338.677668	15.584946	290.121998	-399.505879	99.515051	603.071159	-409.152356	69.192938	521.719676	-396.353425	-1.412635	466.535026	-396.093409	90.821139	506.917029	-367.720075	100.309654	290.872051	-339.844502	-204.700917	834.465722	-224.777018	-78.384259	83.145389	-422.898079	-102.287059	81.283498	-24.077733	
3	0.0150	368.252915	1317.111990	-33.967160	402.175104	1316.892968	-341.560998	349.975602	1360.724120	-189.667320	352.076457	1214.750107	-185.748002	453.165917	1072.668880	40.820132	622.221365	916.118825	4.908152	465.024246	1062.087928	-443.110083	639.530578	915.691215	-396.385875	-151.988185	1116.121817	-231.265355	22.139932	1137.235453	-375.143192	16.647666	1141.615779	-90.281294	53.688425	1049.970413	-343.926616	19.719574	1055.250699	-89.055438	-118.323622	1176.008162	-171.734657	-101.373039	1181.806706	-283.439848	-89.370762	1024.273138	-35.860051	-66.205956	997.520018	-416.931963	13.070581	920.466127	-4.768723	97.827133	893.635028	-11.900747	155.387785	830.387912	-17.553943	116.048731	925.969681	-16.375926	252.381707	775.471981	-28.180106	253.071507	766.968784	-143.947004	216.795353	664.410338	-4.467363	233.754455	577.879801	-18.745165	205.691710	496.493446	-27.887367	264.124024	580.094253	-43.107090	197.785237	392.939132	-49.155890	219.356075	419.314518	-128.581732	153.292865	357.426556	-98.271366	390.809524	398.401177	-79.206715	314.934144	350.960716	-21.711580	13.892084	891.048958	-427.569692	85.439991	844.768372	-410.686072	110.588555	868.688425	-401.912704	124.775708	765.942206	-400.981996	192.038622	681.737861	-378.435159	188.025649	676.477187	-258.865980	-65.361648	403.617719	-381.477241	-132.332015	389.028970	-338.677041	15.584026	290.087143	-399.497011	99.509370	603.032617	-409.114713	69.180463	521.702275	-396.341227	-1.430273	466.494634	-396.081382	90.819395	506.897939	-367.728112	100.815920	292.091170	-339.912266	-204.691882	834.479184	-224.774540	-78.375945	83.169270	-422.885065	-102.281719	81.280633	-24.074916	
4	0.0200	368.249552	1317.174890	-33.992687	402.215227	1316.858535	-341.518736	349.986534	1360.713061	-189.631853	352.083617	1214.765018	-185.718801	453.379861	1072.846042	40.819626	622.213836	916.143383	4.790879	465.266330	1062.391319	-442.922908	639.553615	915.707947	-396.391579	-151.882761	1117.216204	-232.303869	24.340017	1137.733673	-376.366402	16.673047	1141.607808	-90.275223	53.683413	1049.939252	-343.926372	19.729808	1055.235259	-89.056726	-118.319834	1176.007770	-171.708611	-101.355739	1181.795852	-283.423872	-89.365604	1024.291415	-35.836482	-66.231451	997.496498	-416.919894	12.449128	919.308210	-6.252700	98.236477	893.584441	-11.787189	154.311150	830.317938	-17.974613	116.037067	926.003796	-16.360353	252.404369	775.539948	-28.155836	253.096624	767.031740	-143.914804	216.811104	664.446715	-4.428851	233.747433	577.937912	-18.699652	205.970082	496.805275	-27.476120	264.217552	580.203100	-42.968336	197.734491	393.004721	-49.088404	219.328778	419.388192	-128.556339	153.274545	357.489810	-98.258778	390.816877	398.448813	-79.206814	314.917524	351.005563	-21.713870	13.839218	891.035765	-427.562865	85.404991	844.731964	-410.668044	110.773780	869.202230	-400.948809	124.728348	765.912696	-400.956263	191.966692	681.130306	-377.863373	187.875441	676.459775	-258.723657	-65.374509	403.580221	-381.309170	-132.308012	389.291108	-338.659943	15.595426	290.064175	-399.491017	99.487993	603.012748	-409.090386	68.465516	520.543428	-396.309210	-1.449648	466.469451	-396.066432	90.971509	507.662200	-368.368483	100.452277	294.136743	-343.295673	-204.697905	834.470684	-224.768125	-78.365546	83.149903	-422.882361	-102.305429	81.306942	-24.077533	
